SplineFontDB: 3.2
FontName: Angelica
FullName: Angelica
FamilyName: Angelic
Weight: Regular
Copyright: 
Version: 1
ItalicAngle: 0
UnderlinePosition: -100
UnderlineWidth: 50
Ascent: 671
Descent: 329
InvalidEm: 0
sfntRevision: 0x00010000
LayerCount: 2
Layer: 0 1 "Back" 1
Layer: 1 1 "Fore" 0
HasVMetrics: 1
XUID: [1021 497 -1877248868 11783585]
StyleMap: 0x0040
FSType: 4
OS2Version: 3
OS2_WeightWidthSlopeOnly: 0
OS2_UseTypoMetrics: 0
CreationTime: 1500490800
ModificationTime: 1666474364
PfmFamily: 81
TTFWeight: 400
TTFWidth: 5
LineGap: 200
VLineGap: 0
Panose: 0 0 0 0 0 0 0 0 0 0
OS2TypoAscent: 671
OS2TypoAOffset: 0
OS2TypoDescent: -329
OS2TypoDOffset: 0
OS2TypoLinegap: 200
OS2WinAscent: 838
OS2WinAOffset: 0
OS2WinDescent: 362
OS2WinDOffset: 0
HheadAscent: 671
HheadAOffset: 0
HheadDescent: -329
HheadDOffset: 0
OS2SubXSize: 700
OS2SubYSize: 650
OS2SubXOff: 0
OS2SubYOff: 140
OS2SupXSize: 700
OS2SupYSize: 650
OS2SupXOff: 0
OS2SupYOff: 477
OS2StrikeYSize: 50
OS2StrikeYPos: 250
OS2CapHeight: 619
OS2XHeight: 667
OS2Vendor: 'PYRS'
OS2CodePages: 00000001.00000000
OS2UnicodeRanges: 00000001.00000000.00000000.00000000
Lookup: 258 0 0 "'kern' Horizontal Kerning in Latin lookup 0" { "'kern' Horizontal Kerning in Latin lookup 0 subtable"  } ['kern' ('DFLT' <'dflt' > 'latn' <'dflt' > ) ]
MarkAttachClasses: 1
DEI: 91125
TtTable: prep
PUSHW_1
 10
CALL
SVTCA[x-axis]
PUSHW_3
 2
 11
 12
CALL
SVTCA[x-axis]
PUSHW_8
 12
 110
 90
 70
 50
 30
 0
 18
CALL
SVTCA[y-axis]
PUSHW_8
 11
 110
 90
 70
 50
 30
 0
 18
CALL
SVTCA[y-axis]
PUSHW_3
 13
 3
 17
CALL
PUSHW_1
 10
DUP
RCVT
RDTG
ROUND[Black]
RTG
WCVTP
PUSHW_1
 0
CALL
SVTCA[x-axis]
PUSHW_3
 1
 1
 2
CALL
SVTCA[x-axis]
PUSHW_8
 1
 110
 90
 70
 50
 30
 0
 8
CALL
SVTCA[y-axis]
PUSHW_3
 2
 4
 7
CALL
PUSHW_1
 0
DUP
RCVT
RDTG
ROUND[Black]
RTG
WCVTP
EndTTInstrs
TtTable: fpgm
PUSHW_1
 0
FDEF
MPPEM
PUSHW_1
 9
LT
IF
PUSHB_2
 1
 1
INSTCTRL
EIF
PUSHW_1
 511
SCANCTRL
PUSHW_1
 68
SCVTCI
PUSHW_2
 9
 3
SDS
SDB
ENDF
PUSHW_1
 1
FDEF
DUP
DUP
RCVT
ROUND[Black]
WCVTP

StartChar: .notdef
Encoding: 65536 -1 0
Width: 500
GlyphClass: 1
Flags: W
LayerCount: 2
Fore
SplineSet
63 0 m 1,0,-1
 63 671 l 1,1,-1
 438 671 l 1,2,-1
 438 0 l 1,3,-1
 63 0 l 1,4,-1
 63 0 l 1,0,-1
125 63 m 1,5,-1
 375 63 l 1,6,-1
 375 609 l 1,7,-1
 125 609 l 1,8,-1
 125 63 l 1,9,-1
 125 63 l 1,5,-1
EndSplineSet
EndChar

StartChar: D
Encoding: 68 68 4
Width: 683
GlyphClass: 1
Flags: W
LayerCount: 2
Fore
SplineSet
642 372 m 2,0,-1
 270 372 l 1,1,-1
 270 39 l 1,2,-1
 640 -129 l 2,3,4
 654 -135 654 -135 654 -151 c 0,5,6
 654 -162 654 -162 647 -169 c 128,-1,7
 640 -176 640 -176 630 -176 c 0,8,9
 628 -176 628 -176 620 -174 c 2,10,-1
 -150 176 l 2,11,12
 -164 182 -164 182 -164 199 c 0,13,14
 -164 209 -164 209 -157 216 c 128,-1,15
 -150 223 -150 223 -139 223 c 0,16,17
 -133 223 -133 223 -129 221 c 2,18,-1
 221 62 l 1,19,-1
 221 396 l 2,20,21
 221 421 221 421 246 421 c 2,22,-1
 642 421 l 2,23,24
 652 421 652 421 659 414 c 128,-1,25
 666 407 666 407 666 396 c 0,26,27
 666 386 666 386 659 379 c 128,-1,28
 652 372 652 372 642 372 c 2,0,-1
EndSplineSet
EndChar

StartChar: E
Encoding: 69 69 5
Width: 901
GlyphClass: 1
Flags: W
LayerCount: 2
Fore
SplineSet
1230 401 m 256,0,1
 1230 376 1230 376 1205 376 c 2,2,-1
 804 376 l 1,3,-1
 804 25 l 2,4,5
 804 0 804 0 779 0 c 0,6,7
 769 0 769 0 761.5 7 c 128,-1,8
 754 14 754 14 754 25 c 2,9,-1
 754 401 l 2,10,11
 754 474 754 474 726 538 c 128,-1,12
 698 602 698 602 650.5 649.5 c 128,-1,13
 603 697 603 697 539 724.5 c 128,-1,14
 475 752 475 752 403 752 c 0,15,16
 333 752 333 752 269.5 724.5 c 128,-1,17
 206 697 206 697 157.5 649.5 c 128,-1,18
 109 602 109 602 80.5 538 c 128,-1,19
 52 474 52 474 52 401 c 0,20,21
 52 376 52 376 27 376 c 256,22,23
 2 376 2 376 2 401 c 0,24,25
 2 484 2 484 33.5 557 c 128,-1,26
 65 630 65 630 120 684.5 c 128,-1,27
 175 739 175 739 247.5 770.5 c 128,-1,28
 320 802 320 802 403 802 c 0,29,30
 483 802 483 802 554 773 c 128,-1,31
 625 744 625 744 679 693 c 128,-1,32
 733 642 733 642 766 573.5 c 128,-1,33
 799 505 799 505 804 426 c 1,34,-1
 1205 426 l 2,35,36
 1230 426 1230 426 1230 401 c 256,0,1
EndSplineSet
EndChar

StartChar: F
Encoding: 70 70 6
Width: 510
GlyphClass: 1
Flags: W
LayerCount: 2
Fore
SplineSet
436 39 m 1,0,-1
 806 -129 l 2,1,2
 820 -135 820 -135 820 -151 c 0,3,4
 820 -162 820 -162 813 -169 c 128,-1,5
 806 -176 806 -176 796 -176 c 0,6,7
 794 -176 794 -176 786 -174 c 2,8,-1
 16 176 l 2,9,10
 2 182 2 182 2 198 c 0,11,12
 2 223 2 223 27 223 c 0,13,14
 29 223 29 223 37 221 c 2,15,-1
 387 62 l 1,16,-1
 387 569 l 1,17,-1
 -381 569 l 2,18,19
 -391 569 -391 569 -398 576 c 128,-1,20
 -405 583 -405 583 -405 594 c 256,21,22
 -405 605 -405 605 -398 612 c 128,-1,23
 -391 619 -391 619 -381 619 c 2,24,-1
 411 619 l 1,25,-1
 412 619 l 2,26,27
 422 619 422 619 429 612 c 128,-1,28
 436 605 436 605 436 594 c 2,29,-1
 436 39 l 1,0,-1
EndSplineSet
EndChar

StartChar: G
Encoding: 71 71 7
Width: 629
GlyphClass: 1
Flags: W
LayerCount: 2
Fore
SplineSet
194 -99 m 256,0,1
 214 -99 214 -99 229 -113.5 c 128,-1,2
 244 -128 244 -128 244 -149 c 0,3,4
 244 -169 244 -169 229 -183.5 c 128,-1,5
 214 -198 214 -198 194 -198 c 256,6,7
 174 -198 174 -198 159 -183.5 c 128,-1,8
 144 -169 144 -169 144 -149 c 0,9,10
 144 -128 144 -128 159 -113.5 c 128,-1,11
 174 -99 174 -99 194 -99 c 256,0,1
591 591 m 1,12,-1
 591 395 l 2,13,14
 591 314 591 314 560 242 c 128,-1,15
 529 170 529 170 475 116 c 128,-1,16
 421 62 421 62 348.5 31 c 128,-1,17
 276 0 276 0 194 0 c 0,18,19
 111 0 111 0 39 31 c 128,-1,20
 -33 62 -33 62 -87 115.5 c 128,-1,21
 -141 169 -141 169 -172 241 c 128,-1,22
 -203 313 -203 313 -203 395 c 0,23,24
 -203 420 -203 420 -178 420 c 0,25,26
 -168 420 -168 420 -161 413 c 128,-1,27
 -154 406 -154 406 -154 395 c 0,28,29
 -154 323 -154 323 -126.5 260 c 128,-1,30
 -99 197 -99 197 -52 150 c 128,-1,31
 -5 103 -5 103 58.5 76 c 128,-1,32
 122 49 122 49 194 49 c 256,33,34
 266 49 266 49 329 76 c 128,-1,35
 392 103 392 103 439 150 c 128,-1,36
 486 197 486 197 513.5 260 c 128,-1,37
 541 323 541 323 541 395 c 2,38,-1
 541 568 l 1,39,-1
 194 568 l 2,40,41
 183 568 183 568 176 575 c 128,-1,42
 169 582 169 582 169 592 c 0,43,44
 169 617 169 617 194 617 c 2,45,-1
 566 617 l 1,46,-1
 567 617 l 1,47,-1
 568 617 l 1,48,-1
 569 617 l 1,49,-1
 570 617 l 1,50,-1
 571 617 l 2,51,52
 572 616 572 616 573 616 c 2,53,-1
 574 616 l 1,54,-1
 575 615 l 1,55,-1
 576 615 l 2,56,57
 577 615 577 615 578 614 c 0,58,59
 586 609 586 609 589 601 c 0,60,61
 591 593 591 593 591 592 c 2,62,-1
 591 591 l 1,12,-1
EndSplineSet
EndChar

StartChar: H
Encoding: 72 72 8
Width: 833
GlyphClass: 1
Flags: W
LayerCount: 2
Fore
SplineSet
396 446 m 256,0,1
 416 446 416 446 430.5 431 c 128,-1,2
 445 416 445 416 445 396 c 256,3,4
 445 376 445 376 430.5 361.5 c 128,-1,5
 416 347 416 347 396 347 c 256,6,7
 376 347 376 347 361.5 361.5 c 128,-1,8
 347 376 347 376 347 396 c 256,9,10
 347 416 347 416 361.5 431 c 128,-1,11
 376 446 376 446 396 446 c 256,0,1
792 397 m 2,12,-1
 792 25 l 2,13,14
 792 0 792 0 767 0 c 0,15,16
 757 0 757 0 750 7 c 128,-1,17
 743 14 743 14 743 25 c 1,18,-1
 742 25 l 1,19,-1
 742 396 l 2,20,21
 742 468 742 468 714.5 531.5 c 128,-1,22
 687 595 687 595 640 642 c 128,-1,23
 593 689 593 689 530 716 c 128,-1,24
 467 743 467 743 396 743 c 0,25,26
 327 743 327 743 264 716 c 128,-1,27
 201 689 201 689 153.5 641.5 c 128,-1,28
 106 594 106 594 78 531 c 128,-1,29
 50 468 50 468 50 396 c 1,30,-1
 49 396 l 1,31,32
 49 385 49 385 42 378 c 128,-1,33
 35 371 35 371 25 371 c 0,34,35
 0 371 0 371 0 396 c 0,36,37
 0 478 0 478 31 550 c 128,-1,38
 62 622 62 622 116 676 c 128,-1,39
 170 730 170 730 242 761 c 128,-1,40
 314 792 314 792 396 792 c 256,41,42
 478 792 478 792 550 761 c 128,-1,43
 622 730 622 730 676 676.5 c 128,-1,44
 730 623 730 623 761 551 c 128,-1,45
 792 479 792 479 792 397 c 2,12,-1
EndSplineSet
EndChar

StartChar: J
Encoding: 74 74 9
Width: 683
GlyphClass: 1
Flags: W
LayerCount: 2
Fore
SplineSet
270 40 m 5,0,-1
 640 -129 l 6,1,2
 655 -137 655 -137 655 -151 c 4,3,4
 655 -176 655 -176 630 -176 c 4,5,6
 628 -176 628 -176 620 -174 c 6,7,-1
 -150 176 l 5,8,-1
 -149 176 l 5,9,10
 -164 183 -164 183 -164 199 c 4,11,12
 -164 209 -164 209 -157 216 c 132,-1,13
 -150 223 -150 223 -139 223 c 4,14,15
 -133 223 -133 223 -129 221 c 6,16,-1
 221 62 l 5,17,-1
 221 396 l 6,18,19
 221 478 221 478 252 550 c 128,-1,20
 283 622 283 622 336.5 676 c 128,-1,21
 390 730 390 730 462 761 c 128,-1,22
 534 792 534 792 617 792 c 0,23,24
 627 792 627 792 634 785 c 128,-1,25
 641 778 641 778 641 767 c 0,26,27
 641 757 641 757 634 750 c 128,-1,28
 627 743 627 743 617 743 c 1,29,-1
 617 742 l 1,30,31
 546 742 546 742 483 715 c 128,-1,32
 420 688 420 688 372.5 641.5 c 128,-1,33
 325 595 325 595 297.5 531.5 c 128,-1,34
 270 468 270 468 270 396 c 6,35,-1
 270 40 l 5,0,-1
468 397 m 0,36,37
 468 417 468 417 482.5 431.5 c 128,-1,38
 497 446 497 446 518 446 c 0,39,40
 538 446 538 446 552.5 431.5 c 128,-1,41
 567 417 567 417 567 397 c 0,42,43
 567 376 567 376 552.5 361.5 c 128,-1,44
 538 347 538 347 518 347 c 0,45,46
 497 347 497 347 482.5 361.5 c 128,-1,47
 468 376 468 376 468 397 c 0,36,37
EndSplineSet
EndChar

StartChar: K
Encoding: 75 75 10
Width: 632
GlyphClass: 1
Flags: W
LayerCount: 2
Fore
SplineSet
566 421 m 0,0,1
 591 421 591 421 591 396 c 0,2,3
 591 314 591 314 560 242 c 128,-1,4
 529 170 529 170 475 116 c 128,-1,5
 421 62 421 62 349 31 c 128,-1,6
 277 0 277 0 195 0 c 256,7,8
 113 0 113 0 41 31 c 128,-1,9
 -31 62 -31 62 -85 116 c 128,-1,10
 -139 170 -139 170 -170 242 c 128,-1,11
 -201 314 -201 314 -201 396 c 0,12,13
 -201 421 -201 421 -176 421 c 0,14,15
 -166 421 -166 421 -159 414 c 128,-1,16
 -152 407 -152 407 -152 396 c 1,17,-1
 -151 396 l 1,18,19
 -151 324 -151 324 -123.5 260.5 c 128,-1,20
 -96 197 -96 197 -49 150.5 c 128,-1,21
 -2 104 -2 104 61 77 c 128,-1,22
 124 50 124 50 195 50 c 0,23,24
 264 50 264 50 327 77 c 128,-1,25
 390 104 390 104 437.5 151 c 128,-1,26
 485 198 485 198 513 261 c 128,-1,27
 541 324 541 324 541 396 c 1,28,-1
 542 396 l 1,29,30
 542 407 542 407 549 414 c 128,-1,31
 556 421 556 421 566 421 c 0,0,1
EndSplineSet
EndChar

StartChar: L
Encoding: 76 76 11
Width: 833
GlyphClass: 1
Flags: W
LayerCount: 2
Fore
SplineSet
767 421 m 0,0,1
 792 421 792 421 792 396 c 2,2,-1
 792 395 l 2,3,4
 792 313 792 313 761 241 c 128,-1,5
 730 169 730 169 676 115.5 c 128,-1,6
 622 62 622 62 550 31 c 128,-1,7
 478 0 478 0 396 0 c 256,8,9
 314 0 314 0 242 31 c 128,-1,10
 170 62 170 62 116 116 c 128,-1,11
 62 170 62 170 31 242 c 128,-1,12
 0 314 0 314 0 396 c 2,13,-1
 0 593 l 1,14,-1
 0 594 l 1,15,16
 0 594 0 594 2 602 c 0,17,18
 5 612 5 612 14.5 616 c 128,-1,19
 24 620 24 620 33 617 c 2,20,-1
 405 477 l 2,21,22
 415 473 415 473 419 464 c 128,-1,23
 423 455 423 455 419 446 c 0,24,25
 415 436 415 436 406 431.5 c 128,-1,26
 397 427 397 427 387 431 c 2,27,-1
 50 558 l 1,28,-1
 50 396 l 2,29,30
 50 324 50 324 77 261 c 128,-1,31
 104 198 104 198 151 151 c 128,-1,32
 198 104 198 104 261 76.5 c 128,-1,33
 324 49 324 49 396 49 c 256,34,35
 468 49 468 49 531 76 c 128,-1,36
 594 103 594 103 641 150 c 128,-1,37
 688 197 688 197 715.5 260.5 c 128,-1,38
 743 324 743 324 743 396 c 0,39,40
 743 407 743 407 750 414 c 128,-1,41
 757 421 757 421 767 421 c 0,0,1
EndSplineSet
EndChar

StartChar: M
Encoding: 77 77 12
Width: 833
GlyphClass: 1
Flags: W
LayerCount: 2
Fore
SplineSet
792 768 m 2,0,-1
 792 396 l 2,1,2
 792 314 792 314 761 242 c 128,-1,3
 730 170 730 170 676 116 c 128,-1,4
 622 62 622 62 550 31 c 128,-1,5
 478 0 478 0 396 0 c 256,6,7
 314 0 314 0 242 31 c 128,-1,8
 170 62 170 62 116 116 c 128,-1,9
 62 170 62 170 31 242 c 128,-1,10
 0 314 0 314 0 396 c 0,11,12
 0 421 0 421 25 421 c 0,13,14
 35 421 35 421 42 414 c 128,-1,15
 49 407 49 407 49 396 c 1,16,-1
 50 396 l 1,17,18
 50 324 50 324 77.5 260.5 c 128,-1,19
 105 197 105 197 152 150.5 c 128,-1,20
 199 104 199 104 262 77 c 128,-1,21
 325 50 325 50 396 50 c 0,22,23
 465 50 465 50 528 77 c 128,-1,24
 591 104 591 104 638.5 151 c 128,-1,25
 686 198 686 198 714 261 c 128,-1,26
 742 324 742 324 742 396 c 1,27,-1
 749 396 l 1,28,-1
 742 396 l 1,29,-1
 742 743 l 1,30,-1
 25 743 l 2,31,32
 0 743 0 743 0 768 c 0,33,34
 0 778 0 778 7 785 c 128,-1,35
 14 792 14 792 25 792 c 2,36,-1
 767 792 l 2,37,38
 778 792 778 792 785 785 c 128,-1,39
 792 778 792 778 792 768 c 2,0,-1
EndSplineSet
EndChar

StartChar: N
Encoding: 78 78 13
Width: 734
GlyphClass: 1
Flags: W
LayerCount: 2
Fore
SplineSet
693 25 m 0,0,1
 693 0 693 0 668 0 c 0,2,3
 658 0 658 0 651 7 c 128,-1,4
 644 14 644 14 644 25 c 1,5,-1
 643 25 l 1,6,7
 643 94 643 94 618 155 c 128,-1,8
 593 216 593 216 549.5 262.5 c 128,-1,9
 506 309 506 309 447.5 337.5 c 128,-1,10
 389 366 389 366 322 371 c 1,11,-1
 322 25 l 2,12,13
 322 0 322 0 297 0 c 256,14,15
 272 0 272 0 272 25 c 2,16,-1
 272 371 l 1,17,18
 207 366 207 366 148.5 337.5 c 128,-1,19
 90 309 90 309 46 262.5 c 128,-1,20
 2 216 2 216 -23.5 155 c 128,-1,21
 -49 94 -49 94 -49 25 c 1,22,-1
 -50 25 l 1,23,24
 -50 14 -50 14 -57 7 c 128,-1,25
 -64 0 -64 0 -74 0 c 0,26,27
 -99 0 -99 0 -99 25 c 0,28,29
 -99 104 -99 104 -70 174 c 128,-1,30
 -41 244 -41 244 9 297 c 128,-1,31
 59 350 59 350 127 382.5 c 128,-1,32
 195 415 195 415 272 420 c 1,33,-1
 272 594 l 2,34,35
 272 619 272 619 297 619 c 256,36,37
 322 619 322 619 322 594 c 2,38,-1
 322 420 l 1,39,40
 400 415 400 415 467.5 382.5 c 128,-1,41
 535 350 535 350 585.5 296.5 c 128,-1,42
 636 243 636 243 664.5 173.5 c 128,-1,43
 693 104 693 104 693 25 c 0,0,1
EndSplineSet
EndChar

StartChar: P
Encoding: 80 80 14
Width: 533
GlyphClass: 1
Flags: W
LayerCount: 2
Fore
SplineSet
121 247 m 4,0,1
 141 247 141 247 155.5 232.5 c 132,-1,2
 170 218 170 218 170 198 c 4,3,4
 170 177 170 177 155.5 162.5 c 132,-1,5
 141 148 141 148 121 148 c 4,6,7
 100 148 100 148 85.5 162.5 c 132,-1,8
 71 177 71 177 71 198 c 4,9,10
 71 218 71 218 85.5 232.5 c 132,-1,11
 100 247 100 247 121 247 c 4,0,1
517 396 m 2,12,-1
 517 25 l 2,13,14
 517 0 517 0 492 0 c 256,15,16
 467 0 467 0 467 25 c 2,17,-1
 467 371 l 1,18,-1
 -275 371 l 2,19,20
 -300 371 -300 371 -300 396 c 256,21,22
 -300 421 -300 421 -275 421 c 2,23,-1
 492 421 l 2,24,25
 502 421 502 421 509.5 414 c 128,-1,26
 517 407 517 407 517 396 c 2,12,-1
EndSplineSet
EndChar

StartChar: Q
Encoding: 81 81 15
Width: 635
GlyphClass: 1
Flags: W
LayerCount: 2
Fore
SplineSet
593 396 m 0,0,1
 593 317 593 317 564 247 c 128,-1,2
 535 177 535 177 484.5 124 c 128,-1,3
 434 71 434 71 366.5 38 c 128,-1,4
 299 5 299 5 222 1 c 1,5,-1
 222 -74 l 1,6,-1
 395 -74 l 2,7,8
 420 -74 420 -74 420 -99 c 0,9,10
 420 -109 420 -109 413 -116 c 128,-1,11
 406 -123 406 -123 395 -123 c 2,12,-1
 -1 -123 l 2,13,14
 -12 -123 -12 -123 -19 -116 c 128,-1,15
 -26 -109 -26 -109 -26 -99 c 0,16,17
 -26 -74 -26 -74 -1 -74 c 2,18,-1
 172 -74 l 1,19,-1
 172 1 l 1,20,21
 94 5 94 5 26.5 38 c 128,-1,22
 -41 71 -41 71 -91.5 124 c 128,-1,23
 -142 177 -142 177 -170.5 247 c 128,-1,24
 -199 317 -199 317 -199 396 c 0,25,26
 -199 421 -199 421 -174 421 c 0,27,28
 -164 421 -164 421 -157 414 c 128,-1,29
 -150 407 -150 407 -150 396 c 1,30,-1
 -149 396 l 1,31,32
 -149 327 -149 327 -124 266 c 128,-1,33
 -99 205 -99 205 -55.5 158.5 c 128,-1,34
 -12 112 -12 112 46.5 83.5 c 128,-1,35
 105 55 105 55 172 50 c 1,36,-1
 172 396 l 2,37,38
 172 421 172 421 197 421 c 256,39,40
 222 421 222 421 222 396 c 2,41,-1
 222 50 l 1,42,43
 287 55 287 55 345.5 83.5 c 128,-1,44
 404 112 404 112 448 158.5 c 128,-1,45
 492 205 492 205 517.5 266 c 128,-1,46
 543 327 543 327 543 396 c 1,47,-1
 544 396 l 1,48,49
 544 407 544 407 551 414 c 128,-1,50
 558 421 558 421 568 421 c 0,51,52
 593 421 593 421 593 396 c 0,0,1
EndSplineSet
EndChar

StartChar: R
Encoding: 82 82 16
Width: 615
GlyphClass: 1
Flags: W
LayerCount: 2
Fore
SplineSet
433 39 m 1,0,-1
 803 -129 l 2,1,2
 817 -135 817 -135 817 -151 c 0,3,4
 817 -162 817 -162 810 -169 c 128,-1,5
 803 -176 803 -176 793 -176 c 0,6,7
 791 -176 791 -176 783 -174 c 2,8,-1
 13 176 l 2,9,10
 -1 182 -1 182 -1 199 c 0,11,12
 -1 209 -1 209 6 216 c 128,-1,13
 13 223 13 223 24 223 c 0,14,15
 30 223 30 223 34 221 c 2,16,-1
 384 62 l 1,17,-1
 384 380 l 1,18,-1
 13 549 l 2,19,20
 -1 555 -1 555 -1 572 c 0,21,22
 -1 582 -1 582 6 589 c 128,-1,23
 13 596 13 596 24 596 c 0,24,25
 30 596 30 596 34 594 c 2,26,-1
 384 435 l 1,27,-1
 384 594 l 2,28,29
 384 619 384 619 409 619 c 0,30,31
 419 619 419 619 426 612 c 128,-1,32
 433 605 433 605 433 594 c 2,33,-1
 433 39 l 1,0,-1
EndSplineSet
EndChar

StartChar: S
Encoding: 83 83 17
Width: 632
GlyphClass: 1
Flags: W
LayerCount: 2
Fore
SplineSet
195 545 m 256,0,1
 175 545 175 545 160.5 559.5 c 128,-1,2
 146 574 146 574 146 594 c 0,3,4
 146 615 146 615 160.5 629.5 c 128,-1,5
 175 644 175 644 195 644 c 256,6,7
 215 644 215 644 229.5 629.5 c 128,-1,8
 244 615 244 615 244 594 c 0,9,10
 244 574 244 574 229.5 559.5 c 128,-1,11
 215 545 215 545 195 545 c 256,0,1
195 347 m 256,12,13
 175 347 175 347 160.5 361.5 c 128,-1,14
 146 376 146 376 146 396 c 0,15,16
 146 417 146 417 160.5 431.5 c 128,-1,17
 175 446 175 446 195 446 c 256,18,19
 215 446 215 446 229.5 431.5 c 128,-1,20
 244 417 244 417 244 396 c 0,21,22
 244 376 244 376 229.5 361.5 c 128,-1,23
 215 347 215 347 195 347 c 256,12,13
566 421 m 0,24,25
 591 421 591 421 591 396 c 0,26,27
 591 314 591 314 560 242 c 128,-1,28
 529 170 529 170 475 116 c 128,-1,29
 421 62 421 62 349 31 c 128,-1,30
 277 0 277 0 195 0 c 256,31,32
 113 0 113 0 41 31 c 128,-1,33
 -31 62 -31 62 -85 116 c 128,-1,34
 -139 170 -139 170 -170 242 c 128,-1,35
 -201 314 -201 314 -201 396 c 0,36,37
 -201 421 -201 421 -176 421 c 0,38,39
 -166 421 -166 421 -159 414 c 128,-1,40
 -152 407 -152 407 -152 396 c 1,41,-1
 -151 396 l 1,42,43
 -151 324 -151 324 -123.5 260.5 c 128,-1,44
 -96 197 -96 197 -49 150.5 c 128,-1,45
 -2 104 -2 104 61 77 c 128,-1,46
 124 50 124 50 195 50 c 0,47,48
 264 50 264 50 327 77 c 128,-1,49
 390 104 390 104 437.5 151 c 128,-1,50
 485 198 485 198 513 261 c 128,-1,51
 541 324 541 324 541 396 c 1,52,-1
 542 396 l 1,53,54
 542 407 542 407 549 414 c 128,-1,55
 556 421 556 421 566 421 c 0,24,25
EndSplineSet
EndChar

StartChar: T
Encoding: 84 84 18
Width: 385
GlyphClass: 1
Flags: W
LayerCount: 2
Fore
SplineSet
324 594 m 2,0,-1
 324 25 l 2,1,2
 324 14 324 14 317 7 c 128,-1,3
 310 0 310 0 300 0 c 0,4,5
 275 0 275 0 275 25 c 2,6,-1
 275 381 l 1,7,-1
 -96 549 l 2,8,9
 -110 555 -110 555 -110 572 c 0,10,11
 -110 582 -110 582 -103 589 c 128,-1,12
 -96 596 -96 596 -85 596 c 0,13,14
 -79 596 -79 596 -75 594 c 2,15,-1
 275 435 l 1,16,-1
 275 594 l 2,17,18
 275 619 275 619 300 619 c 0,19,20
 310 619 310 619 317 612 c 128,-1,21
 324 605 324 605 324 594 c 2,0,-1
EndSplineSet
EndChar

StartChar: U
Encoding: 85 85 19
Width: 831
GlyphClass: 1
Flags: W
LayerCount: 2
Fore
SplineSet
815 396 m 2,0,-1
 815 25 l 2,1,2
 815 0 815 0 790 0 c 256,3,4
 765 0 765 0 765 25 c 2,5,-1
 765 173 l 1,6,-1
 419 173 l 2,7,8
 394 173 394 173 394 198 c 256,9,10
 394 223 394 223 419 223 c 2,11,-1
 765 223 l 1,12,-1
 765 371 l 1,13,-1
 23 371 l 2,14,15
 -2 371 -2 371 -2 396 c 256,16,17
 -2 421 -2 421 23 421 c 2,18,-1
 790 421 l 2,19,20
 800 421 800 421 807.5 414 c 128,-1,21
 815 407 815 407 815 396 c 2,0,-1
EndSplineSet
EndChar

StartChar: W
Encoding: 87 87 20
Width: 595
GlyphClass: 1
Flags: W
LayerCount: 2
Fore
SplineSet
195 50 m 0,0,1
 261 50 261 50 321.5 75 c 128,-1,2
 382 100 382 100 429 143.5 c 128,-1,3
 476 187 476 187 506 245.5 c 128,-1,4
 536 304 536 304 541 372 c 1,5,-1
 -150 372 l 1,6,7
 -146 304 -146 304 -117 245 c 128,-1,8
 -88 186 -88 186 -41 142.5 c 128,-1,9
 6 99 6 99 66.5 74.5 c 128,-1,10
 127 50 127 50 195 50 c 0,0,1
-176 421 m 2,11,-1
 987 421 l 2,12,13
 1012 421 1012 421 1012 396 c 0,14,15
 1012 386 1012 386 1005 379 c 128,-1,16
 998 372 998 372 987 372 c 2,17,-1
 590 372 l 1,18,19
 585 294 585 294 552 226.5 c 128,-1,20
 519 159 519 159 466 108.5 c 128,-1,21
 413 58 413 58 343 29 c 128,-1,22
 273 0 273 0 195 0 c 0,23,24
 113 0 113 0 41 31 c 128,-1,25
 -31 62 -31 62 -85 116 c 128,-1,26
 -139 170 -139 170 -170 242 c 128,-1,27
 -201 314 -201 314 -201 396 c 0,28,29
 -201 421 -201 421 -176 421 c 2,11,-1
EndSplineSet
EndChar

StartChar: X
Encoding: 88 88 21
Width: 833
GlyphClass: 1
Flags: W
LayerCount: 2
Fore
SplineSet
393 569 m 2,0,-1
 50 569 l 1,1,-1
 50 223 l 1,2,-1
 743 223 l 1,3,4
 743 295 743 295 715 358.5 c 128,-1,5
 687 422 687 422 639 468.5 c 128,-1,6
 591 515 591 515 527.5 542 c 128,-1,7
 464 569 464 569 393 569 c 2,0,-1
792 230 m 2,8,-1
 792 25 l 2,9,10
 792 0 792 0 767 0 c 0,11,12
 757 0 757 0 750 7 c 128,-1,13
 743 14 743 14 743 25 c 2,14,-1
 743 173 l 1,15,-1
 25 173 l 2,16,17
 0 173 0 173 0 198 c 2,18,-1
 0 569 l 1,19,-1
 0 619 l 1,20,-1
 0 767 l 2,21,22
 0 792 0 792 25 792 c 0,23,24
 35 792 35 792 42.5 785 c 128,-1,25
 50 778 50 778 50 767 c 2,26,-1
 50 619 l 1,27,-1
 396 619 l 2,28,29
 477 619 477 619 549 588.5 c 128,-1,30
 621 558 621 558 675 505 c 128,-1,31
 729 452 729 452 760.5 381 c 128,-1,32
 792 310 792 310 792 230 c 2,8,-1
EndSplineSet
EndChar

StartChar: Y
Encoding: 89 89 22
Width: 182
GlyphClass: 1
Flags: W
LayerCount: 2
Fore
SplineSet
282 397 m 2,0,-1
 282 4 l 2,1,2
 282 -3 282 -3 279 -7 c 0,3,4
 241 -94 241 -94 181 -165 c 128,-1,5
 121 -236 121 -236 44.5 -286.5 c 128,-1,6
 -32 -337 -32 -337 -122 -365 c 128,-1,7
 -212 -393 -212 -393 -309 -393 c 0,8,9
 -405 -393 -405 -393 -495.5 -365 c 128,-1,10
 -586 -337 -586 -337 -663 -286 c 128,-1,11
 -740 -235 -740 -235 -800.5 -164 c 128,-1,12
 -861 -93 -861 -93 -898 -6 c 0,13,14
 -900 2 -900 2 -900 4 c 0,15,16
 -900 29 -900 29 -875 29 c 0,17,18
 -859 29 -859 29 -852 13 c 0,19,20
 -817 -68 -817 -68 -761 -134 c 128,-1,21
 -705 -200 -705 -200 -634 -246.5 c 128,-1,22
 -563 -293 -563 -293 -480.5 -318 c 128,-1,23
 -398 -343 -398 -343 -309 -343 c 0,24,25
 -221 -343 -221 -343 -139 -318 c 128,-1,26
 -57 -293 -57 -293 13.5 -247 c 128,-1,27
 84 -201 84 -201 140.5 -136 c 128,-1,28
 197 -71 197 -71 233 9 c 1,29,-1
 233 397 l 2,30,31
 233 407 233 407 240 414 c 128,-1,32
 247 421 247 421 257 421 c 0,33,34
 268 421 268 421 275 414 c 128,-1,35
 282 407 282 407 282 397 c 2,0,-1
EndSplineSet
EndChar

StartChar: Z
Encoding: 90 90 23
Width: 836
GlyphClass: 1
Flags: W
LayerCount: 2
Fore
SplineSet
795 394 m 1,0,-1
 795 393 l 2,1,2
 795 312 795 312 764 240.5 c 128,-1,3
 733 169 733 169 679 115.5 c 128,-1,4
 625 62 625 62 553 31 c 128,-1,5
 481 0 481 0 399 0 c 256,6,7
 317 0 317 0 245 31 c 128,-1,8
 173 62 173 62 119 115.5 c 128,-1,9
 65 169 65 169 34 241 c 128,-1,10
 3 313 3 313 3 395 c 2,11,-1
 3 396 l 2,12,13
 3 421 3 421 28 421 c 0,14,15
 38 421 38 421 45 414 c 128,-1,16
 52 407 52 407 52 396 c 0,17,18
 52 324 52 324 79.5 260.5 c 128,-1,19
 107 197 107 197 154 150 c 128,-1,20
 201 103 201 103 264 76 c 128,-1,21
 327 49 327 49 399 49 c 0,22,23
 470 49 470 49 533 76 c 128,-1,24
 596 103 596 103 643 150 c 128,-1,25
 690 197 690 197 717.5 259.5 c 128,-1,26
 745 322 745 322 745 393 c 2,27,-1
 745 558 l 1,28,-1
 408 431 l 2,29,30
 398 427 398 427 389 431.5 c 128,-1,31
 380 436 380 436 376 446 c 0,32,33
 372 455 372 455 376.5 464.5 c 128,-1,34
 381 474 381 474 390 477 c 2,35,-1
 762 617 l 2,36,37
 771 620 771 620 780.5 616 c 128,-1,38
 790 612 790 612 793 602 c 0,39,40
 795 594 795 594 795 594 c 1,41,-1
 795 593 l 1,42,-1
 795 396 l 1,43,-1
 795 394 l 1,0,-1
EndSplineSet
EndChar

StartChar: a
Encoding: 97 97 24
Width: 876
GlyphClass: 1
Flags: W
LayerCount: 2
Fore
SplineSet
806 396 m 0,0,1
 806 314 806 314 775 242 c 128,-1,2
 744 170 744 170 690 116 c 128,-1,3
 636 62 636 62 564 31 c 128,-1,4
 492 0 492 0 410 0 c 0,5,6
 400 0 400 0 393 7.5 c 128,-1,7
 386 15 386 15 386 25 c 2,8,-1
 386 380 l 1,9,-1
 16 549 l 2,10,11
 1 556 1 556 1 571 c 0,12,13
 1 596 1 596 26 596 c 0,14,15
 28 596 28 596 36 594 c 2,16,-1
 386 435 l 1,17,-1
 386 594 l 2,18,19
 386 605 386 605 393 612 c 128,-1,20
 400 619 400 619 410 619 c 0,21,22
 435 619 435 619 435 594 c 2,23,-1
 435 51 l 1,24,25
 499 56 499 56 557.5 84.5 c 128,-1,26
 616 113 616 113 660 159 c 128,-1,27
 704 205 704 205 730 265.5 c 128,-1,28
 756 326 756 326 756 394 c 2,29,-1
 756 396 l 2,30,31
 756 421 756 421 781 421 c 256,32,33
 806 421 806 421 806 396 c 0,0,1
EndSplineSet
EndChar

StartChar: b
Encoding: 98 98 25
Width: 910
GlyphClass: 1
Flags: W
LayerCount: 2
Fore
SplineSet
50 372 m 1,0,-1
 50 50 l 1,1,2
 112 55 112 55 168 81.5 c 128,-1,3
 224 108 224 108 267.5 151 c 128,-1,4
 311 194 311 194 338 250.5 c 128,-1,5
 365 307 365 307 370 372 c 1,6,-1
 50 372 l 1,0,-1
50 421 m 1,7,-1
 817 421 l 2,8,9
 827 421 827 421 834 414 c 128,-1,10
 841 407 841 407 841 396 c 0,11,12
 841 386 841 386 834 379 c 128,-1,13
 827 372 827 372 817 372 c 2,14,-1
 420 372 l 1,15,16
 415 294 415 294 382 226.5 c 128,-1,17
 349 159 349 159 296 108.5 c 128,-1,18
 243 58 243 58 173 29 c 128,-1,19
 103 0 103 0 25 0 c 2,20,-1
 24 0 l 2,21,22
 14 0 14 0 7 7.5 c 128,-1,23
 0 15 0 15 0 25 c 2,24,-1
 0 594 l 2,25,26
 0 619 0 619 25 619 c 0,27,28
 35 619 35 619 42.5 612 c 128,-1,29
 50 605 50 605 50 594 c 2,30,-1
 50 421 l 1,7,-1
EndSplineSet
EndChar

StartChar: d
Encoding: 100 100 26
Width: 901
GlyphClass: 1
Flags: W
LayerCount: 2
Fore
SplineSet
803 372 m 2,0,-1
 431 372 l 1,1,-1
 431 39 l 1,2,-1
 801 -129 l 2,3,4
 815 -135 815 -135 815 -151 c 0,5,6
 815 -162 815 -162 808 -169 c 128,-1,7
 801 -176 801 -176 791 -176 c 0,8,9
 789 -176 789 -176 781 -174 c 2,10,-1
 11 176 l 2,11,12
 -3 182 -3 182 -3 199 c 0,13,14
 -3 209 -3 209 4 216 c 128,-1,15
 11 223 11 223 22 223 c 0,16,17
 28 223 28 223 32 221 c 2,18,-1
 382 62 l 1,19,-1
 382 396 l 2,20,21
 382 421 382 421 407 421 c 2,22,-1
 803 421 l 2,23,24
 813 421 813 421 820 414 c 128,-1,25
 827 407 827 407 827 396 c 0,26,27
 827 386 827 386 820 379 c 128,-1,28
 813 372 813 372 803 372 c 2,0,-1
EndSplineSet
EndChar

StartChar: e
Encoding: 101 101 27
Width: 1304
GlyphClass: 1
Flags: W
LayerCount: 2
Fore
SplineSet
1230 401 m 256,0,1
 1230 376 1230 376 1205 376 c 2,2,-1
 804 376 l 1,3,-1
 804 25 l 2,4,5
 804 0 804 0 779 0 c 0,6,7
 769 0 769 0 761.5 7 c 128,-1,8
 754 14 754 14 754 25 c 2,9,-1
 754 401 l 2,10,11
 754 474 754 474 726 538 c 128,-1,12
 698 602 698 602 650.5 649.5 c 128,-1,13
 603 697 603 697 539 724.5 c 128,-1,14
 475 752 475 752 403 752 c 0,15,16
 333 752 333 752 269.5 724.5 c 128,-1,17
 206 697 206 697 157.5 649.5 c 128,-1,18
 109 602 109 602 80.5 538 c 128,-1,19
 52 474 52 474 52 401 c 0,20,21
 52 376 52 376 27 376 c 256,22,23
 2 376 2 376 2 401 c 0,24,25
 2 484 2 484 33.5 557 c 128,-1,26
 65 630 65 630 120 684.5 c 128,-1,27
 175 739 175 739 247.5 770.5 c 128,-1,28
 320 802 320 802 403 802 c 0,29,30
 483 802 483 802 554 773 c 128,-1,31
 625 744 625 744 679 693 c 128,-1,32
 733 642 733 642 766 573.5 c 128,-1,33
 799 505 799 505 804 426 c 1,34,-1
 1205 426 l 2,35,36
 1230 426 1230 426 1230 401 c 256,0,1
EndSplineSet
EndChar

StartChar: f
Encoding: 102 102 28
Width: 924
GlyphClass: 1
Flags: W
LayerCount: 2
Fore
SplineSet
841 39 m 1,0,-1
 1211 -129 l 2,1,2
 1225 -135 1225 -135 1225 -151 c 0,3,4
 1225 -162 1225 -162 1218 -169 c 128,-1,5
 1211 -176 1211 -176 1201 -176 c 0,6,7
 1199 -176 1199 -176 1191 -174 c 2,8,-1
 421 176 l 2,9,10
 407 182 407 182 407 198 c 0,11,12
 407 223 407 223 432 223 c 0,13,14
 434 223 434 223 442 221 c 2,15,-1
 792 62 l 1,16,-1
 792 569 l 1,17,-1
 24 569 l 2,18,19
 14 569 14 569 7 576 c 128,-1,20
 0 583 0 583 0 594 c 256,21,22
 0 605 0 605 7 612 c 128,-1,23
 14 619 14 619 24 619 c 2,24,-1
 816 619 l 1,25,-1
 817 619 l 2,26,27
 827 619 827 619 834 612 c 128,-1,28
 841 605 841 605 841 594 c 2,29,-1
 841 39 l 1,0,-1
EndSplineSet
EndChar

StartChar: g
Encoding: 103 103 29
Width: 870
GlyphClass: 1
Flags: W
LayerCount: 2
Fore
SplineSet
398 -99 m 256,0,1
 418 -99 418 -99 433 -113.5 c 128,-1,2
 448 -128 448 -128 448 -149 c 0,3,4
 448 -169 448 -169 433 -183.5 c 128,-1,5
 418 -198 418 -198 398 -198 c 256,6,7
 378 -198 378 -198 363 -183.5 c 128,-1,8
 348 -169 348 -169 348 -149 c 0,9,10
 348 -128 348 -128 363 -113.5 c 128,-1,11
 378 -99 378 -99 398 -99 c 256,0,1
795 591 m 1,12,-1
 795 395 l 2,13,14
 795 314 795 314 764 242 c 128,-1,15
 733 170 733 170 679 116 c 128,-1,16
 625 62 625 62 552.5 31 c 128,-1,17
 480 0 480 0 398 0 c 0,18,19
 315 0 315 0 243 31 c 128,-1,20
 171 62 171 62 117 115.5 c 128,-1,21
 63 169 63 169 32 241 c 128,-1,22
 1 313 1 313 1 395 c 0,23,24
 1 420 1 420 26 420 c 0,25,26
 36 420 36 420 43 413 c 128,-1,27
 50 406 50 406 50 395 c 0,28,29
 50 323 50 323 77.5 260 c 128,-1,30
 105 197 105 197 152 150 c 128,-1,31
 199 103 199 103 262.5 76 c 128,-1,32
 326 49 326 49 398 49 c 256,33,34
 470 49 470 49 533 76 c 128,-1,35
 596 103 596 103 643 150 c 128,-1,36
 690 197 690 197 717.5 260 c 128,-1,37
 745 323 745 323 745 395 c 2,38,-1
 745 568 l 1,39,-1
 398 568 l 2,40,41
 387 568 387 568 380 575 c 128,-1,42
 373 582 373 582 373 592 c 0,43,44
 373 617 373 617 398 617 c 2,45,-1
 770 617 l 1,46,-1
 771 617 l 1,47,-1
 772 617 l 1,48,-1
 773 617 l 1,49,-1
 774 617 l 1,50,-1
 775 617 l 2,51,52
 776 616 776 616 777 616 c 2,53,-1
 778 616 l 1,54,-1
 779 615 l 1,55,-1
 780 615 l 2,56,57
 781 615 781 615 782 614 c 0,58,59
 790 609 790 609 793 601 c 0,60,61
 795 593 795 593 795 592 c 2,62,-1
 795 591 l 1,12,-1
EndSplineSet
EndChar

StartChar: h
Encoding: 104 104 30
Width: 867
GlyphClass: 1
Flags: W
LayerCount: 2
Fore
SplineSet
396 446 m 256,0,1
 416 446 416 446 430.5 431 c 128,-1,2
 445 416 445 416 445 396 c 256,3,4
 445 376 445 376 430.5 361.5 c 128,-1,5
 416 347 416 347 396 347 c 256,6,7
 376 347 376 347 361.5 361.5 c 128,-1,8
 347 376 347 376 347 396 c 256,9,10
 347 416 347 416 361.5 431 c 128,-1,11
 376 446 376 446 396 446 c 256,0,1
792 397 m 2,12,-1
 792 25 l 2,13,14
 792 0 792 0 767 0 c 0,15,16
 757 0 757 0 750 7 c 128,-1,17
 743 14 743 14 743 25 c 1,18,-1
 742 25 l 1,19,-1
 742 396 l 2,20,21
 742 468 742 468 714.5 531.5 c 128,-1,22
 687 595 687 595 640 642 c 128,-1,23
 593 689 593 689 530 716 c 128,-1,24
 467 743 467 743 396 743 c 0,25,26
 327 743 327 743 264 716 c 128,-1,27
 201 689 201 689 153.5 641.5 c 128,-1,28
 106 594 106 594 78 531 c 128,-1,29
 50 468 50 468 50 396 c 1,30,-1
 49 396 l 1,31,32
 49 385 49 385 42 378 c 128,-1,33
 35 371 35 371 25 371 c 0,34,35
 0 371 0 371 0 396 c 0,36,37
 0 478 0 478 31 550 c 128,-1,38
 62 622 62 622 116 676 c 128,-1,39
 170 730 170 730 242 761 c 128,-1,40
 314 792 314 792 396 792 c 256,41,42
 478 792 478 792 550 761 c 128,-1,43
 622 730 622 730 676 676.5 c 128,-1,44
 730 623 730 623 761 551 c 128,-1,45
 792 479 792 479 792 397 c 2,12,-1
EndSplineSet
EndChar

StartChar: j
Encoding: 106 106 31
Width: 880
GlyphClass: 1
Flags: W
LayerCount: 2
Fore
SplineSet
431 40 m 1,0,-1
 801 -129 l 2,1,2
 816 -137 816 -137 816 -151 c 0,3,4
 816 -176 816 -176 791 -176 c 0,5,6
 789 -176 789 -176 781 -174 c 2,7,-1
 11 176 l 1,8,-1
 12 176 l 1,9,10
 -3 183 -3 183 -3 199 c 0,11,12
 -3 209 -3 209 4 216 c 128,-1,13
 11 223 11 223 22 223 c 0,14,15
 28 223 28 223 32 221 c 2,16,-1
 382 62 l 1,17,-1
 382 396 l 2,18,19
 382 478 382 478 413 550 c 128,-1,20
 444 622 444 622 497.5 676 c 128,-1,21
 551 730 551 730 623 761 c 128,-1,22
 695 792 695 792 778 792 c 0,23,24
 788 792 788 792 795 785 c 128,-1,25
 802 778 802 778 802 767 c 0,26,27
 802 757 802 757 795 750 c 128,-1,28
 788 743 788 743 778 743 c 1,29,-1
 778 742 l 1,30,31
 707 742 707 742 644 715 c 128,-1,32
 581 688 581 688 533.5 641.5 c 128,-1,33
 486 595 486 595 458.5 531.5 c 128,-1,34
 431 468 431 468 431 396 c 2,35,-1
 431 40 l 1,0,-1
629 397 m 0,36,37
 629 417 629 417 643.5 431.5 c 128,-1,38
 658 446 658 446 679 446 c 0,39,40
 699 446 699 446 713.5 431.5 c 128,-1,41
 728 417 728 417 728 397 c 0,42,43
 728 376 728 376 713.5 361.5 c 128,-1,44
 699 347 699 347 679 347 c 0,45,46
 658 347 658 347 643.5 361.5 c 128,-1,47
 629 376 629 376 629 397 c 0,36,37
EndSplineSet
EndChar

StartChar: k
Encoding: 107 107 32
Width: 867
GlyphClass: 1
Flags: W
LayerCount: 2
Fore
SplineSet
767 421 m 0,0,1
 792 421 792 421 792 396 c 0,2,3
 792 314 792 314 761 242 c 128,-1,4
 730 170 730 170 676 116 c 128,-1,5
 622 62 622 62 550 31 c 128,-1,6
 478 0 478 0 396 0 c 256,7,8
 314 0 314 0 242 31 c 128,-1,9
 170 62 170 62 116 116 c 128,-1,10
 62 170 62 170 31 242 c 128,-1,11
 0 314 0 314 0 396 c 0,12,13
 0 421 0 421 25 421 c 0,14,15
 35 421 35 421 42 414 c 128,-1,16
 49 407 49 407 49 396 c 1,17,-1
 50 396 l 1,18,19
 50 324 50 324 77.5 260.5 c 128,-1,20
 105 197 105 197 152 150.5 c 128,-1,21
 199 104 199 104 262 77 c 128,-1,22
 325 50 325 50 396 50 c 0,23,24
 465 50 465 50 528 77 c 128,-1,25
 591 104 591 104 638.5 151 c 128,-1,26
 686 198 686 198 714 261 c 128,-1,27
 742 324 742 324 742 396 c 1,28,-1
 743 396 l 1,29,30
 743 407 743 407 750 414 c 128,-1,31
 757 421 757 421 767 421 c 0,0,1
EndSplineSet
EndChar

StartChar: l
Encoding: 108 108 33
Width: 867
GlyphClass: 1
Flags: W
LayerCount: 2
Fore
SplineSet
767 421 m 0,0,1
 792 421 792 421 792 396 c 2,2,-1
 792 395 l 2,3,4
 792 313 792 313 761 241 c 128,-1,5
 730 169 730 169 676 115.5 c 128,-1,6
 622 62 622 62 550 31 c 128,-1,7
 478 0 478 0 396 0 c 256,8,9
 314 0 314 0 242 31 c 128,-1,10
 170 62 170 62 116 116 c 128,-1,11
 62 170 62 170 31 242 c 128,-1,12
 0 314 0 314 0 396 c 2,13,-1
 0 593 l 1,14,-1
 0 594 l 1,15,16
 0 594 0 594 2 602 c 0,17,18
 5 612 5 612 14.5 616 c 128,-1,19
 24 620 24 620 33 617 c 2,20,-1
 405 477 l 2,21,22
 415 473 415 473 419 464 c 128,-1,23
 423 455 423 455 419 446 c 0,24,25
 415 436 415 436 406 431.5 c 128,-1,26
 397 427 397 427 387 431 c 2,27,-1
 50 558 l 1,28,-1
 50 396 l 2,29,30
 50 324 50 324 77 261 c 128,-1,31
 104 198 104 198 151 151 c 128,-1,32
 198 104 198 104 261 76.5 c 128,-1,33
 324 49 324 49 396 49 c 256,34,35
 468 49 468 49 531 76 c 128,-1,36
 594 103 594 103 641 150 c 128,-1,37
 688 197 688 197 715.5 260.5 c 128,-1,38
 743 324 743 324 743 396 c 0,39,40
 743 407 743 407 750 414 c 128,-1,41
 757 421 757 421 767 421 c 0,0,1
EndSplineSet
EndChar

StartChar: m
Encoding: 109 109 34
Width: 864
GlyphClass: 1
Flags: W
LayerCount: 2
Fore
SplineSet
792 768 m 2,0,-1
 792 396 l 2,1,2
 792 314 792 314 761 242 c 128,-1,3
 730 170 730 170 676 116 c 128,-1,4
 622 62 622 62 550 31 c 128,-1,5
 478 0 478 0 396 0 c 256,6,7
 314 0 314 0 242 31 c 128,-1,8
 170 62 170 62 116 116 c 128,-1,9
 62 170 62 170 31 242 c 128,-1,10
 0 314 0 314 0 396 c 0,11,12
 0 421 0 421 25 421 c 0,13,14
 35 421 35 421 42 414 c 128,-1,15
 49 407 49 407 49 396 c 1,16,-1
 50 396 l 1,17,18
 50 324 50 324 77.5 260.5 c 128,-1,19
 105 197 105 197 152 150.5 c 128,-1,20
 199 104 199 104 262 77 c 128,-1,21
 325 50 325 50 396 50 c 0,22,23
 465 50 465 50 528 77 c 128,-1,24
 591 104 591 104 638.5 151 c 128,-1,25
 686 198 686 198 714 261 c 128,-1,26
 742 324 742 324 742 396 c 1,27,-1
 749 396 l 1,28,-1
 742 396 l 1,29,-1
 742 743 l 1,30,-1
 25 743 l 2,31,32
 0 743 0 743 0 768 c 0,33,34
 0 778 0 778 7 785 c 128,-1,35
 14 792 14 792 25 792 c 2,36,-1
 767 792 l 2,37,38
 778 792 778 792 785 785 c 128,-1,39
 792 778 792 778 792 768 c 2,0,-1
EndSplineSet
EndChar

StartChar: n
Encoding: 110 110 35
Width: 864
GlyphClass: 1
Flags: W
LayerCount: 2
Fore
SplineSet
792 25 m 0,0,1
 792 0 792 0 767 0 c 0,2,3
 757 0 757 0 750 7 c 128,-1,4
 743 14 743 14 743 25 c 1,5,-1
 742 25 l 1,6,7
 742 94 742 94 717 155 c 128,-1,8
 692 216 692 216 648.5 262.5 c 128,-1,9
 605 309 605 309 546.5 337.5 c 128,-1,10
 488 366 488 366 421 371 c 1,11,-1
 421 25 l 2,12,13
 421 0 421 0 396 0 c 256,14,15
 371 0 371 0 371 25 c 2,16,-1
 371 371 l 1,17,18
 306 366 306 366 247.5 337.5 c 128,-1,19
 189 309 189 309 145 262.5 c 128,-1,20
 101 216 101 216 75.5 155 c 128,-1,21
 50 94 50 94 50 25 c 1,22,-1
 49 25 l 1,23,24
 49 14 49 14 42 7 c 128,-1,25
 35 0 35 0 25 0 c 0,26,27
 0 0 0 0 0 25 c 0,28,29
 0 104 0 104 29 174 c 128,-1,30
 58 244 58 244 108 297 c 128,-1,31
 158 350 158 350 226 382.5 c 128,-1,32
 294 415 294 415 371 420 c 1,33,-1
 371 594 l 2,34,35
 371 619 371 619 396 619 c 256,36,37
 421 619 421 619 421 594 c 2,38,-1
 421 420 l 1,39,40
 499 415 499 415 566.5 382.5 c 128,-1,41
 634 350 634 350 684.5 296.5 c 128,-1,42
 735 243 735 243 763.5 173.5 c 128,-1,43
 792 104 792 104 792 25 c 0,0,1
EndSplineSet
EndChar

StartChar: p
Encoding: 112 112 36
Width: 890
GlyphClass: 1
Flags: W
LayerCount: 2
Fore
SplineSet
421 247 m 4,0,1
 441 247 441 247 455.5 232.5 c 132,-1,2
 470 218 470 218 470 198 c 4,3,4
 470 177 470 177 455.5 162.5 c 132,-1,5
 441 148 441 148 421 148 c 4,6,7
 400 148 400 148 385.5 162.5 c 132,-1,8
 371 177 371 177 371 198 c 4,9,10
 371 218 371 218 385.5 232.5 c 132,-1,11
 400 247 400 247 421 247 c 4,0,1
817 396 m 2,12,-1
 817 25 l 2,13,14
 817 0 817 0 792 0 c 256,15,16
 767 0 767 0 767 25 c 2,17,-1
 767 371 l 1,18,-1
 25 371 l 2,19,20
 0 371 0 371 0 396 c 256,21,22
 0 421 0 421 25 421 c 2,23,-1
 792 421 l 2,24,25
 802 421 802 421 809.5 414 c 128,-1,26
 817 407 817 407 817 396 c 2,12,-1
EndSplineSet
EndChar

StartChar: q
Encoding: 113 113 37
Width: 870
GlyphClass: 1
Flags: W
LayerCount: 2
Fore
SplineSet
791 396 m 0,0,1
 791 317 791 317 762 247 c 128,-1,2
 733 177 733 177 682.5 124 c 128,-1,3
 632 71 632 71 564.5 38 c 128,-1,4
 497 5 497 5 420 1 c 1,5,-1
 420 -74 l 1,6,-1
 593 -74 l 2,7,8
 618 -74 618 -74 618 -99 c 0,9,10
 618 -109 618 -109 611 -116 c 128,-1,11
 604 -123 604 -123 593 -123 c 2,12,-1
 197 -123 l 2,13,14
 186 -123 186 -123 179 -116 c 128,-1,15
 172 -109 172 -109 172 -99 c 0,16,17
 172 -74 172 -74 197 -74 c 2,18,-1
 370 -74 l 1,19,-1
 370 1 l 1,20,21
 292 5 292 5 224.5 38 c 128,-1,22
 157 71 157 71 106.5 124 c 128,-1,23
 56 177 56 177 27.5 247 c 128,-1,24
 -1 317 -1 317 -1 396 c 0,25,26
 -1 421 -1 421 24 421 c 0,27,28
 34 421 34 421 41 414 c 128,-1,29
 48 407 48 407 48 396 c 1,30,-1
 49 396 l 1,31,32
 49 327 49 327 74 266 c 128,-1,33
 99 205 99 205 142.5 158.5 c 128,-1,34
 186 112 186 112 244.5 83.5 c 128,-1,35
 303 55 303 55 370 50 c 1,36,-1
 370 396 l 2,37,38
 370 421 370 421 395 421 c 256,39,40
 420 421 420 421 420 396 c 2,41,-1
 420 50 l 1,42,43
 485 55 485 55 543.5 83.5 c 128,-1,44
 602 112 602 112 646 158.5 c 128,-1,45
 690 205 690 205 715.5 266 c 128,-1,46
 741 327 741 327 741 396 c 1,47,-1
 742 396 l 1,48,49
 742 407 742 407 749 414 c 128,-1,50
 756 421 756 421 766 421 c 0,51,52
 791 421 791 421 791 396 c 0,0,1
EndSplineSet
EndChar

StartChar: r
Encoding: 114 114 38
Width: 507
GlyphClass: 1
Flags: W
LayerCount: 2
Fore
SplineSet
433 39 m 1,0,-1
 803 -129 l 2,1,2
 817 -135 817 -135 817 -151 c 0,3,4
 817 -162 817 -162 810 -169 c 128,-1,5
 803 -176 803 -176 793 -176 c 0,6,7
 791 -176 791 -176 783 -174 c 2,8,-1
 13 176 l 2,9,10
 -1 182 -1 182 -1 199 c 0,11,12
 -1 209 -1 209 6 216 c 128,-1,13
 13 223 13 223 24 223 c 0,14,15
 30 223 30 223 34 221 c 2,16,-1
 384 62 l 1,17,-1
 384 380 l 1,18,-1
 13 549 l 2,19,20
 -1 555 -1 555 -1 572 c 0,21,22
 -1 582 -1 582 6 589 c 128,-1,23
 13 596 13 596 24 596 c 0,24,25
 30 596 30 596 34 594 c 2,26,-1
 384 435 l 1,27,-1
 384 594 l 2,28,29
 384 619 384 619 409 619 c 0,30,31
 419 619 419 619 426 612 c 128,-1,32
 433 605 433 605 433 594 c 2,33,-1
 433 39 l 1,0,-1
EndSplineSet
EndChar

StartChar: s
Encoding: 115 115 39
Width: 870
GlyphClass: 1
Flags: W
LayerCount: 2
Fore
SplineSet
396 545 m 256,0,1
 376 545 376 545 361.5 559.5 c 128,-1,2
 347 574 347 574 347 594 c 0,3,4
 347 615 347 615 361.5 629.5 c 128,-1,5
 376 644 376 644 396 644 c 256,6,7
 416 644 416 644 430.5 629.5 c 128,-1,8
 445 615 445 615 445 594 c 0,9,10
 445 574 445 574 430.5 559.5 c 128,-1,11
 416 545 416 545 396 545 c 256,0,1
396 347 m 256,12,13
 376 347 376 347 361.5 361.5 c 128,-1,14
 347 376 347 376 347 396 c 0,15,16
 347 417 347 417 361.5 431.5 c 128,-1,17
 376 446 376 446 396 446 c 256,18,19
 416 446 416 446 430.5 431.5 c 128,-1,20
 445 417 445 417 445 396 c 0,21,22
 445 376 445 376 430.5 361.5 c 128,-1,23
 416 347 416 347 396 347 c 256,12,13
767 421 m 0,24,25
 792 421 792 421 792 396 c 0,26,27
 792 314 792 314 761 242 c 128,-1,28
 730 170 730 170 676 116 c 128,-1,29
 622 62 622 62 550 31 c 128,-1,30
 478 0 478 0 396 0 c 256,31,32
 314 0 314 0 242 31 c 128,-1,33
 170 62 170 62 116 116 c 128,-1,34
 62 170 62 170 31 242 c 128,-1,35
 0 314 0 314 0 396 c 0,36,37
 0 421 0 421 25 421 c 0,38,39
 35 421 35 421 42 414 c 128,-1,40
 49 407 49 407 49 396 c 1,41,-1
 50 396 l 1,42,43
 50 324 50 324 77.5 260.5 c 128,-1,44
 105 197 105 197 152 150.5 c 128,-1,45
 199 104 199 104 262 77 c 128,-1,46
 325 50 325 50 396 50 c 0,47,48
 465 50 465 50 528 77 c 128,-1,49
 591 104 591 104 638.5 151 c 128,-1,50
 686 198 686 198 714 261 c 128,-1,51
 742 324 742 324 742 396 c 1,52,-1
 743 396 l 1,53,54
 743 407 743 407 750 414 c 128,-1,55
 757 421 757 421 767 421 c 0,24,25
EndSplineSet
EndChar

StartChar: t
Encoding: 116 116 40
Width: 500
GlyphClass: 1
Flags: W
LayerCount: 2
Fore
SplineSet
434 594 m 2,0,-1
 434 25 l 2,1,2
 434 14 434 14 427 7 c 128,-1,3
 420 0 420 0 410 0 c 0,4,5
 385 0 385 0 385 25 c 2,6,-1
 385 381 l 1,7,-1
 14 549 l 2,8,9
 0 555 0 555 0 572 c 0,10,11
 0 582 0 582 7 589 c 128,-1,12
 14 596 14 596 25 596 c 0,13,14
 31 596 31 596 35 594 c 2,15,-1
 385 435 l 1,16,-1
 385 594 l 2,17,18
 385 619 385 619 410 619 c 0,19,20
 420 619 420 619 427 612 c 128,-1,21
 434 605 434 605 434 594 c 2,0,-1
EndSplineSet
EndChar

StartChar: u
Encoding: 117 117 41
Width: 893
GlyphClass: 1
Flags: W
LayerCount: 2
Fore
SplineSet
817 396 m 2,0,-1
 817 25 l 2,1,2
 817 0 817 0 792 0 c 256,3,4
 767 0 767 0 767 25 c 2,5,-1
 767 173 l 1,6,-1
 421 173 l 2,7,8
 396 173 396 173 396 198 c 256,9,10
 396 223 396 223 421 223 c 2,11,-1
 767 223 l 1,12,-1
 767 371 l 1,13,-1
 25 371 l 2,14,15
 0 371 0 371 0 396 c 256,16,17
 0 421 0 421 25 421 c 2,18,-1
 792 421 l 2,19,20
 802 421 802 421 809.5 414 c 128,-1,21
 817 407 817 407 817 396 c 2,0,-1
EndSplineSet
EndChar

StartChar: w
Encoding: 119 119 42
Width: 1287
GlyphClass: 1
Flags: W
LayerCount: 2
Fore
SplineSet
396 50 m 0,0,1
 462 50 462 50 522.5 75 c 128,-1,2
 583 100 583 100 630 143.5 c 128,-1,3
 677 187 677 187 707 245.5 c 128,-1,4
 737 304 737 304 742 372 c 1,5,-1
 51 372 l 1,6,7
 55 304 55 304 84 245 c 128,-1,8
 113 186 113 186 160 142.5 c 128,-1,9
 207 99 207 99 267.5 74.5 c 128,-1,10
 328 50 328 50 396 50 c 0,0,1
25 421 m 2,11,-1
 1188 421 l 2,12,13
 1213 421 1213 421 1213 396 c 0,14,15
 1213 386 1213 386 1206 379 c 128,-1,16
 1199 372 1199 372 1188 372 c 2,17,-1
 791 372 l 1,18,19
 786 294 786 294 753 226.5 c 128,-1,20
 720 159 720 159 667 108.5 c 128,-1,21
 614 58 614 58 544 29 c 128,-1,22
 474 0 474 0 396 0 c 0,23,24
 314 0 314 0 242 31 c 128,-1,25
 170 62 170 62 116 116 c 128,-1,26
 62 170 62 170 31 242 c 128,-1,27
 0 314 0 314 0 396 c 0,28,29
 0 421 0 421 25 421 c 2,11,-1
EndSplineSet
EndChar

StartChar: x
Encoding: 120 120 43
Width: 862
GlyphClass: 1
Flags: W
LayerCount: 2
Fore
SplineSet
393 569 m 2,0,-1
 50 569 l 1,1,-1
 50 223 l 1,2,-1
 743 223 l 1,3,4
 743 295 743 295 715 358.5 c 128,-1,5
 687 422 687 422 639 468.5 c 128,-1,6
 591 515 591 515 527.5 542 c 128,-1,7
 464 569 464 569 393 569 c 2,0,-1
792 230 m 2,8,-1
 792 25 l 2,9,10
 792 0 792 0 767 0 c 0,11,12
 757 0 757 0 750 7 c 128,-1,13
 743 14 743 14 743 25 c 2,14,-1
 743 173 l 1,15,-1
 25 173 l 2,16,17
 0 173 0 173 0 198 c 2,18,-1
 0 569 l 1,19,-1
 0 619 l 1,20,-1
 0 767 l 2,21,22
 0 792 0 792 25 792 c 0,23,24
 35 792 35 792 42.5 785 c 128,-1,25
 50 778 50 778 50 767 c 2,26,-1
 50 619 l 1,27,-1
 396 619 l 2,28,29
 477 619 477 619 549 588.5 c 128,-1,30
 621 558 621 558 675 505 c 128,-1,31
 729 452 729 452 760.5 381 c 128,-1,32
 792 310 792 310 792 230 c 2,8,-1
EndSplineSet
EndChar

StartChar: y
Encoding: 121 121 44
Width: 1267
GlyphClass: 1
Flags: W
LayerCount: 2
Fore
SplineSet
1184 397 m 2,0,-1
 1184 4 l 2,1,2
 1184 -3 1184 -3 1181 -7 c 0,3,4
 1143 -94 1143 -94 1083 -165 c 128,-1,5
 1023 -236 1023 -236 946.5 -286.5 c 128,-1,6
 870 -337 870 -337 780 -365 c 128,-1,7
 690 -393 690 -393 593 -393 c 0,8,9
 497 -393 497 -393 406.5 -365 c 128,-1,10
 316 -337 316 -337 239 -286 c 128,-1,11
 162 -235 162 -235 101.5 -164 c 128,-1,12
 41 -93 41 -93 4 -6 c 0,13,14
 2 2 2 2 2 4 c 0,15,16
 2 29 2 29 27 29 c 0,17,18
 43 29 43 29 50 13 c 0,19,20
 85 -68 85 -68 141 -134 c 128,-1,21
 197 -200 197 -200 268 -246.5 c 128,-1,22
 339 -293 339 -293 421.5 -318 c 128,-1,23
 504 -343 504 -343 593 -343 c 0,24,25
 681 -343 681 -343 763 -318 c 128,-1,26
 845 -293 845 -293 915.5 -247 c 128,-1,27
 986 -201 986 -201 1042.5 -136 c 128,-1,28
 1099 -71 1099 -71 1135 9 c 1,29,-1
 1135 397 l 2,30,31
 1135 407 1135 407 1142 414 c 128,-1,32
 1149 421 1149 421 1159 421 c 0,33,34
 1170 421 1170 421 1177 414 c 128,-1,35
 1184 407 1184 407 1184 397 c 2,0,-1
EndSplineSet
EndChar

StartChar: z
Encoding: 122 122 45
Width: 862
GlyphClass: 1
Flags: W
LayerCount: 2
Fore
SplineSet
792 394 m 1,0,-1
 792 393 l 2,1,2
 792 312 792 312 761 240.5 c 128,-1,3
 730 169 730 169 676 115.5 c 128,-1,4
 622 62 622 62 550 31 c 128,-1,5
 478 0 478 0 396 0 c 256,6,7
 314 0 314 0 242 31 c 128,-1,8
 170 62 170 62 116 115.5 c 128,-1,9
 62 169 62 169 31 241 c 128,-1,10
 0 313 0 313 0 395 c 2,11,-1
 0 396 l 2,12,13
 0 421 0 421 25 421 c 0,14,15
 35 421 35 421 42 414 c 128,-1,16
 49 407 49 407 49 396 c 0,17,18
 49 324 49 324 76.5 260.5 c 128,-1,19
 104 197 104 197 151 150 c 128,-1,20
 198 103 198 103 261 76 c 128,-1,21
 324 49 324 49 396 49 c 0,22,23
 467 49 467 49 530 76 c 128,-1,24
 593 103 593 103 640 150 c 128,-1,25
 687 197 687 197 714.5 259.5 c 128,-1,26
 742 322 742 322 742 393 c 2,27,-1
 742 558 l 1,28,-1
 405 431 l 2,29,30
 395 427 395 427 386 431.5 c 128,-1,31
 377 436 377 436 373 446 c 0,32,33
 369 455 369 455 373.5 464.5 c 128,-1,34
 378 474 378 474 387 477 c 2,35,-1
 759 617 l 2,36,37
 768 620 768 620 777.5 616 c 128,-1,38
 787 612 787 612 790 602 c 0,39,40
 792 594 792 594 792 594 c 1,41,-1
 792 593 l 1,42,-1
 792 396 l 1,43,-1
 792 394 l 1,0,-1
EndSplineSet
EndChar

StartChar: B
Encoding: 66 66 46
Width: 419
GlyphClass: 1
Flags: W
LayerCount: 2
Fore
SplineSet
50 372 m 1,0,-1
 50 50 l 1,1,2
 112 55 112 55 168 81.5 c 128,-1,3
 224 108 224 108 267.5 151 c 128,-1,4
 311 194 311 194 338 250.5 c 128,-1,5
 365 307 365 307 370 372 c 1,6,-1
 50 372 l 1,0,-1
50 421 m 1,7,-1
 817 421 l 2,8,9
 827 421 827 421 834 414 c 128,-1,10
 841 407 841 407 841 396 c 0,11,12
 841 386 841 386 834 379 c 128,-1,13
 827 372 827 372 817 372 c 2,14,-1
 420 372 l 1,15,16
 415 294 415 294 382 226.5 c 128,-1,17
 349 159 349 159 296 108.5 c 128,-1,18
 243 58 243 58 173 29 c 128,-1,19
 103 0 103 0 25 0 c 2,20,-1
 24 0 l 2,21,22
 14 0 14 0 7 7.5 c 128,-1,23
 0 15 0 15 0 25 c 2,24,-1
 0 594 l 2,25,26
 0 619 0 619 25 619 c 0,27,28
 35 619 35 619 42.5 612 c 128,-1,29
 50 605 50 605 50 594 c 2,30,-1
 50 421 l 1,7,-1
EndSplineSet
EndChar

StartChar: A
Encoding: 65 65 47
Width: 734
GlyphClass: 1
Flags: W
LayerCount: 2
Fore
SplineSet
693 396 m 0,0,1
 693 314 693 314 662 242 c 128,-1,2
 631 170 631 170 577 116 c 128,-1,3
 523 62 523 62 451 31 c 128,-1,4
 379 0 379 0 297 0 c 0,5,6
 287 0 287 0 280 7.5 c 128,-1,7
 273 15 273 15 273 25 c 2,8,-1
 273 380 l 1,9,-1
 -97 549 l 2,10,11
 -112 556 -112 556 -112 571 c 0,12,13
 -112 596 -112 596 -87 596 c 0,14,15
 -85 596 -85 596 -77 594 c 2,16,-1
 273 435 l 1,17,-1
 273 594 l 2,18,19
 273 605 273 605 280 612 c 128,-1,20
 287 619 287 619 297 619 c 0,21,22
 322 619 322 619 322 594 c 2,23,-1
 322 51 l 1,24,25
 386 56 386 56 444.5 84.5 c 128,-1,26
 503 113 503 113 547 159 c 128,-1,27
 591 205 591 205 617 265.5 c 128,-1,28
 643 326 643 326 643 394 c 2,29,-1
 643 396 l 2,30,31
 643 421 643 421 668 421 c 256,32,33
 693 421 693 421 693 396 c 0,0,1
EndSplineSet
EndChar

StartChar: ey
Encoding: 65537 -1 50
Width: 0
VWidth: 0
GlyphClass: 1
Flags: W
LayerCount: 2
Fore
SplineSet
1230 401 m 256,0,1
 1230 376 1230 376 1205 376 c 2,2,-1
 804 376 l 1,3,-1
 804 25 l 2,4,5
 804 0 804 0 779 0 c 0,6,7
 769 0 769 0 761.5 7 c 128,-1,8
 754 14 754 14 754 25 c 2,9,-1
 754 401 l 2,10,11
 754 474 754 474 726 538 c 128,-1,12
 698 602 698 602 650.5 649.5 c 128,-1,13
 603 697 603 697 539 724.5 c 128,-1,14
 475 752 475 752 403 752 c 0,15,16
 333 752 333 752 269.5 724.5 c 128,-1,17
 206 697 206 697 157.5 649.5 c 128,-1,18
 109 602 109 602 80.5 538 c 128,-1,19
 52 474 52 474 52 401 c 0,20,21
 52 376 52 376 27 376 c 256,22,23
 2 376 2 376 2 401 c 0,24,25
 2 484 2 484 33.5 557 c 128,-1,26
 65 630 65 630 120 684.5 c 128,-1,27
 175 739 175 739 247.5 770.5 c 128,-1,28
 320 802 320 802 403 802 c 0,29,30
 483 802 483 802 554 773 c 128,-1,31
 625 744 625 744 679 693 c 128,-1,32
 733 642 733 642 766 573.5 c 128,-1,33
 799 505 799 505 804 426 c 1,34,-1
 1205 426 l 2,35,36
 1230 426 1230 426 1230 401 c 256,0,1
2086 397 m 2,37,-1
 2086 4 l 2,38,39
 2086 -3 2086 -3 2083 -7 c 0,40,41
 2045 -94 2045 -94 1985 -165 c 128,-1,42
 1925 -236 1925 -236 1848.5 -286.5 c 128,-1,43
 1772 -337 1772 -337 1682 -365 c 128,-1,44
 1592 -393 1592 -393 1495 -393 c 0,45,46
 1399 -393 1399 -393 1308.5 -365 c 128,-1,47
 1218 -337 1218 -337 1141 -286 c 128,-1,48
 1064 -235 1064 -235 1003.5 -164 c 128,-1,49
 943 -93 943 -93 906 -6 c 0,50,51
 904 2 904 2 904 4 c 0,52,53
 904 29 904 29 929 29 c 0,54,55
 945 29 945 29 952 13 c 0,56,57
 987 -68 987 -68 1043 -134 c 128,-1,58
 1099 -200 1099 -200 1170 -246.5 c 128,-1,59
 1241 -293 1241 -293 1323.5 -318 c 128,-1,60
 1406 -343 1406 -343 1495 -343 c 0,61,62
 1583 -343 1583 -343 1665 -318 c 128,-1,63
 1747 -293 1747 -293 1817.5 -247 c 128,-1,64
 1888 -201 1888 -201 1944.5 -136 c 128,-1,65
 2001 -71 2001 -71 2037 9 c 1,66,-1
 2037 397 l 2,67,68
 2037 407 2037 407 2044 414 c 128,-1,69
 2051 421 2051 421 2061 421 c 0,70,71
 2072 421 2072 421 2079 414 c 128,-1,72
 2086 407 2086 407 2086 397 c 2,37,-1
EndSplineSet
EndChar

StartChar: C
Encoding: 67 67 51
Width: 632
Flags: W
LayerCount: 2
Fore
SplineSet
195 347 m 256,0,1
 175 347 175 347 160.5 361.5 c 128,-1,2
 146 376 146 376 146 396 c 0,3,4
 146 417 146 417 160.5 431.5 c 128,-1,5
 175 446 175 446 195 446 c 256,6,7
 215 446 215 446 229.5 431.5 c 128,-1,8
 244 417 244 417 244 396 c 0,9,10
 244 376 244 376 229.5 361.5 c 128,-1,11
 215 347 215 347 195 347 c 256,0,1
566 421 m 0,12,13
 591 421 591 421 591 396 c 0,14,15
 591 314 591 314 560 242 c 128,-1,16
 529 170 529 170 475 116 c 128,-1,17
 421 62 421 62 349 31 c 128,-1,18
 277 0 277 0 195 0 c 256,19,20
 113 0 113 0 41 31 c 128,-1,21
 -31 62 -31 62 -85 116 c 128,-1,22
 -139 170 -139 170 -170 242 c 128,-1,23
 -201 314 -201 314 -201 396 c 0,24,25
 -201 421 -201 421 -176 421 c 0,26,27
 -166 421 -166 421 -159 414 c 128,-1,28
 -152 407 -152 407 -152 396 c 1,29,-1
 -151 396 l 1,30,31
 -151 324 -151 324 -123.5 260.5 c 128,-1,32
 -96 197 -96 197 -49 150.5 c 128,-1,33
 -2 104 -2 104 61 77 c 128,-1,34
 124 50 124 50 195 50 c 0,35,36
 264 50 264 50 327 77 c 128,-1,37
 390 104 390 104 437.5 151 c 128,-1,38
 485 198 485 198 513 261 c 128,-1,39
 541 324 541 324 541 396 c 1,40,-1
 542 396 l 1,41,42
 542 407 542 407 549 414 c 128,-1,43
 556 421 556 421 566 421 c 0,12,13
EndSplineSet
EndChar

StartChar: c
Encoding: 99 99 52
Width: 870
Flags: W
LayerCount: 2
Fore
SplineSet
396 347 m 256,0,1
 376 347 376 347 361.5 361.5 c 128,-1,2
 347 376 347 376 347 396 c 0,3,4
 347 417 347 417 361.5 431.5 c 128,-1,5
 376 446 376 446 396 446 c 256,6,7
 416 446 416 446 430.5 431.5 c 128,-1,8
 445 417 445 417 445 396 c 0,9,10
 445 376 445 376 430.5 361.5 c 128,-1,11
 416 347 416 347 396 347 c 256,0,1
767 421 m 0,12,13
 792 421 792 421 792 396 c 0,14,15
 792 314 792 314 761 242 c 128,-1,16
 730 170 730 170 676 116 c 128,-1,17
 622 62 622 62 550 31 c 128,-1,18
 478 0 478 0 396 0 c 256,19,20
 314 0 314 0 242 31 c 128,-1,21
 170 62 170 62 116 116 c 128,-1,22
 62 170 62 170 31 242 c 128,-1,23
 0 314 0 314 0 396 c 0,24,25
 0 421 0 421 25 421 c 0,26,27
 35 421 35 421 42 414 c 128,-1,28
 49 407 49 407 49 396 c 1,29,-1
 50 396 l 1,30,31
 50 324 50 324 77.5 260.5 c 128,-1,32
 105 197 105 197 152 150.5 c 128,-1,33
 199 104 199 104 262 77 c 128,-1,34
 325 50 325 50 396 50 c 0,35,36
 465 50 465 50 528 77 c 128,-1,37
 591 104 591 104 638.5 151 c 128,-1,38
 686 198 686 198 714 261 c 128,-1,39
 742 324 742 324 742 396 c 1,40,-1
 743 396 l 1,41,42
 743 407 743 407 750 414 c 128,-1,43
 757 421 757 421 767 421 c 0,12,13
EndSplineSet
EndChar

StartChar: i
Encoding: 105 105 53
Width: 1017
Flags: W
LayerCount: 2
Fore
SplineSet
431 173 m 9,0,-1
 431 -79 l 1,1,-1
 801 -248 l 2,2,3
 816 -254.8515625 816 -254.8515625 816 -270 c 0,4,5
 816 -295 816 -295 791 -295 c 0,6,7
 785.400390625 -295 785.400390625 -295 781 -293 c 2,8,-1
 11 57 l 1,9,-1
 12 57 l 1,10,11
 -3 64 -3 64 -3 80 c 0,12,13
 -3 90 -3 90 4 97 c 128,-1,14
 11 104 11 104 22 104 c 0,15,16
 27.59765625 104 27.59765625 104 32 102 c 2,17,-1
 382 -57 l 1,18,-1
 382 173 l 17,19,20
 382 173 382 173 186 173 c 2,21,22
 161 173 161 173 161 198 c 2,23,-1
 161 569 l 1,24,-1
 161 619 l 1,25,-1
 161 767 l 2,26,27
 161 792 161 792 186 792 c 0,28,29
 196 792 196 792 203.5 785 c 128,-1,30
 211 778 211 778 211 767 c 2,31,-1
 211 619 l 1,32,-1
 557 619 l 2,33,34
 638 619 638 619 710 588.5 c 128,-1,35
 782 558 782 558 836 505 c 128,-1,36
 890 452 890 452 921.5 381 c 128,-1,37
 953 310 953 310 953 230 c 2,38,-1
 953 25 l 2,39,40
 953 0 953 0 928 0 c 0,41,42
 918 0 918 0 911 7 c 128,-1,43
 904 14 904 14 904 25 c 2,44,-1
 904 173 l 1,45,-1
 431 173 l 9,0,-1
554 569 m 2,46,-1
 211 569 l 1,47,-1
 211 223 l 1,48,-1
 904 223 l 1,49,50
 904 295 904 295 876 358.5 c 128,-1,51
 848 422 848 422 800 468.5 c 128,-1,52
 752 515 752 515 688.5 542 c 128,-1,53
 625 569 625 569 554 569 c 2,46,-1
EndSplineSet
EndChar

StartChar: I
Encoding: 73 73 54
Width: 833
Flags: W
LayerCount: 2
Fore
SplineSet
270 173 m 13,0,-1
 270 -79 l 5,1,-1
 640 -248 l 6,2,3
 655 -254.851351351 655 -254.851351351 655 -270 c 4,4,5
 655 -295 655 -295 630 -295 c 4,6,7
 624.4 -295 624.4 -295 620 -293 c 6,8,-1
 -150 57 l 5,9,-1
 -149 57 l 5,10,11
 -164 64 -164 64 -164 80 c 4,12,13
 -164 90 -164 90 -157 97 c 132,-1,14
 -150 104 -150 104 -139 104 c 4,15,16
 -133.402515723 104 -133.402515723 104 -129 102 c 6,17,-1
 221 -57 l 5,18,-1
 221 173 l 21,19,20
 221 173 221 173 25 173 c 6,21,22
 0 173 0 173 0 198 c 6,23,-1
 0 569 l 5,24,-1
 0 619 l 5,25,-1
 0 767 l 6,26,27
 0 792 0 792 25 792 c 4,28,29
 35 792 35 792 42.5 785 c 132,-1,30
 50 778 50 778 50 767 c 6,31,-1
 50 619 l 5,32,-1
 396 619 l 6,33,34
 477 619 477 619 549 588.5 c 132,-1,35
 621 558 621 558 675 505 c 132,-1,36
 729 452 729 452 760.5 381 c 132,-1,37
 792 310 792 310 792 230 c 6,38,-1
 792 25 l 6,39,40
 792 0 792 0 767 0 c 4,41,42
 757 0 757 0 750 7 c 132,-1,43
 743 14 743 14 743 25 c 6,44,-1
 743 173 l 5,45,-1
 270 173 l 13,0,-1
393 569 m 6,46,-1
 50 569 l 5,47,-1
 50 223 l 5,48,-1
 743 223 l 5,49,50
 743 295 743 295 715 358.5 c 132,-1,51
 687 422 687 422 639 468.5 c 132,-1,52
 591 515 591 515 527.5 542 c 132,-1,53
 464 569 464 569 393 569 c 6,46,-1
EndSplineSet
EndChar

StartChar: O
Encoding: 79 79 55
Width: 831
Flags: W
LayerCount: 2
Fore
SplineSet
179 247 m 4,0,1
 199 247 199 247 213.5 232.5 c 132,-1,2
 228 218 228 218 228 198 c 4,3,4
 228 177 228 177 213.5 162.5 c 132,-1,5
 199 148 199 148 179 148 c 4,6,7
 158 148 158 148 143.5 162.5 c 132,-1,8
 129 177 129 177 129 198 c 4,9,10
 129 218 129 218 143.5 232.5 c 132,-1,11
 158 247 158 247 179 247 c 4,0,1
815 396 m 2,12,-1
 815 25 l 2,13,14
 815 0 815 0 790 0 c 256,15,16
 765 0 765 0 765 25 c 2,17,-1
 765 173 l 1,18,-1
 419 173 l 2,19,20
 394 173 394 173 394 198 c 256,21,22
 394 223 394 223 419 223 c 2,23,-1
 765 223 l 1,24,-1
 765 371 l 1,25,-1
 23 371 l 2,26,27
 -2 371 -2 371 -2 396 c 256,28,29
 -2 421 -2 421 23 421 c 2,30,-1
 790 421 l 2,31,32
 800 421 800 421 807.5 414 c 128,-1,33
 815 407 815 407 815 396 c 2,12,-1
EndSplineSet
EndChar

StartChar: o
Encoding: 111 111 56
Width: 893
Flags: W
LayerCount: 2
Fore
SplineSet
211 247 m 4,0,1
 231 247 231 247 245.5 232.5 c 132,-1,2
 260 218 260 218 260 198 c 4,3,4
 260 177 260 177 245.5 162.5 c 132,-1,5
 231 148 231 148 211 148 c 4,6,7
 190 148 190 148 175.5 162.5 c 132,-1,8
 161 177 161 177 161 198 c 4,9,10
 161 218 161 218 175.5 232.5 c 132,-1,11
 190 247 190 247 211 247 c 4,0,1
817 396 m 2,12,-1
 817 25 l 2,13,14
 817 0 817 0 792 0 c 256,15,16
 767 0 767 0 767 25 c 2,17,-1
 767 173 l 1,18,-1
 421 173 l 2,19,20
 396 173 396 173 396 198 c 256,21,22
 396 223 396 223 421 223 c 2,23,-1
 767 223 l 1,24,-1
 767 371 l 1,25,-1
 25 371 l 2,26,27
 0 371 0 371 0 396 c 256,28,29
 0 421 0 421 25 421 c 2,30,-1
 792 421 l 2,31,32
 802 421 802 421 809.5 414 c 128,-1,33
 817 407 817 407 817 396 c 2,12,-1
EndSplineSet
EndChar

StartChar: V
Encoding: 86 86 57
Width: 901
Flags: W
LayerCount: 2
Fore
SplineSet
387 401 m 2,0,1
 387 401 387 401 394 413.5 c 128,-1,2
 401 426 401 426 411 426 c 2,3,4
 411 426 411 426 412 426 c 1,5,-1
 766 426 l 1,6,7
 796.262695312 376 796.262695312 376 796.262695312 376 c 129,-1,8
 796.262695312 376 796.262695312 376 436 376 c 1,9,-1
 436 -34 l 5,10,-1
 806 -202 l 6,11,12
 820 -208 820 -208 820 -224 c 4,13,14
 820 -235 820 -235 813 -242 c 132,-1,15
 806 -249 806 -249 796 -249 c 4,16,17
 790.4 -249 790.4 -249 786 -247 c 6,18,-1
 16 103 l 6,19,20
 2 109 2 109 2 125 c 4,21,22
 2 150 2 150 27 150 c 4,23,24
 32.5974842767 150 32.5974842767 150 37 148 c 6,25,-1
 387 -11 l 5,26,-1
 387 401 l 2,0,1
1230 401 m 256,27,28
 1230 376 1230 376 1205 376 c 2,29,-1
 804 376 l 1,30,-1
 804 25 l 2,31,32
 804 0 804 0 779 0 c 0,33,34
 769 0 769 0 761.5 7 c 128,-1,35
 754 14 754 14 754 25 c 2,36,-1
 754 401 l 2,37,38
 754 474 754 474 726 538 c 128,-1,39
 698 602 698 602 650.5 649.5 c 128,-1,40
 603 697 603 697 539 724.5 c 128,-1,41
 475 752 475 752 403 752 c 0,42,43
 333 752 333 752 269.5 724.5 c 128,-1,44
 206 697 206 697 157.5 649.5 c 128,-1,45
 109 602 109 602 80.5 538 c 128,-1,46
 52 474 52 474 52 401 c 0,47,48
 52 376 52 376 27 376 c 256,49,50
 2 376 2 376 2 401 c 0,51,52
 2 484 2 484 33.5 557 c 128,-1,53
 65 630 65 630 120 684.5 c 128,-1,54
 175 739 175 739 247.5 770.5 c 128,-1,55
 320 802 320 802 403 802 c 0,56,57
 483 802 483 802 554 773 c 128,-1,58
 625 744 625 744 679 693 c 128,-1,59
 733 642 733 642 766 573.5 c 128,-1,60
 799 505 799 505 804 426 c 1,61,-1
 1205 426 l 2,62,63
 1230 426 1230 426 1230 401 c 256,27,28
EndSplineSet
EndChar

StartChar: v
Encoding: 118 118 58
Width: 1304
Flags: W
LayerCount: 2
Fore
SplineSet
387 401 m 2,0,1
 387 401 387 401 394 413.5 c 128,-1,2
 401 426 401 426 411 426 c 2,3,4
 411 426 411 426 412 426 c 1,5,-1
 766 426 l 1,6,7
 796.262695312 376 796.262695312 376 796.262695312 376 c 129,-1,8
 796.262695312 376 796.262695312 376 436 376 c 1,9,-1
 436 -34 l 5,10,-1
 806 -202 l 6,11,12
 820 -208 820 -208 820 -224 c 4,13,14
 820 -235 820 -235 813 -242 c 132,-1,15
 806 -249 806 -249 796 -249 c 4,16,17
 790.4 -249 790.4 -249 786 -247 c 6,18,-1
 16 103 l 6,19,20
 2 109 2 109 2 125 c 4,21,22
 2 150 2 150 27 150 c 4,23,24
 32.5974842767 150 32.5974842767 150 37 148 c 6,25,-1
 387 -11 l 5,26,-1
 387 401 l 2,0,1
1230 401 m 256,27,28
 1230 376 1230 376 1205 376 c 2,29,-1
 804 376 l 1,30,-1
 804 25 l 2,31,32
 804 0 804 0 779 0 c 0,33,34
 769 0 769 0 761.5 7 c 128,-1,35
 754 14 754 14 754 25 c 2,36,-1
 754 401 l 2,37,38
 754 474 754 474 726 538 c 128,-1,39
 698 602 698 602 650.5 649.5 c 128,-1,40
 603 697 603 697 539 724.5 c 128,-1,41
 475 752 475 752 403 752 c 0,42,43
 333 752 333 752 269.5 724.5 c 128,-1,44
 206 697 206 697 157.5 649.5 c 128,-1,45
 109 602 109 602 80.5 538 c 128,-1,46
 52 474 52 474 52 401 c 0,47,48
 52 376 52 376 27 376 c 256,49,50
 2 376 2 376 2 401 c 0,51,52
 2 484 2 484 33.5 557 c 128,-1,53
 65 630 65 630 120 684.5 c 128,-1,54
 175 739 175 739 247.5 770.5 c 128,-1,55
 320 802 320 802 403 802 c 0,56,57
 483 802 483 802 554 773 c 128,-1,58
 625 744 625 744 679 693 c 128,-1,59
 733 642 733 642 766 573.5 c 128,-1,60
 799 505 799 505 804 426 c 1,61,-1
 1205 426 l 2,62,63
 1230 426 1230 426 1230 401 c 256,27,28
EndSplineSet
EndChar
